<svg width="15" height="13" viewBox="0 0 15 13" fill="none" xmlns="http://www.w3.org/2000/svg">
<g opacity="0.6">
<path d="M0.336914 2.13442C0.336914 0.824707 1.30448 0.824707 1.784 0.824707H4.53347C5.54643 0.824707 5.54643 1.36115 5.54643 1.84337V2.71649C5.54643 3.19871 5.1577 3.58963 4.67818 3.58963H1.20517C0.725644 3.58963 0.336914 3.19871 0.336914 2.71649V2.13442Z" fill="white"/>
<path d="M0.336914 2.71649C0.336914 1.9128 0.984797 1.4068 1.784 1.4068H13.216C14.0152 1.4068 14.6631 2.05833 14.6631 2.86202V9.99261C14.6631 10.7963 14.0152 11.4478 13.216 11.4478H1.784C0.984797 11.4478 0.336914 10.7963 0.336914 9.99261L0.336914 2.71649Z" fill="white"/>
</g>
<rect x="0.336914" y="2.1344" width="14.3262" height="10.041" rx="2" fill="white"/>
<line x1="7.5" y1="5" x2="7.5" y2="10" stroke="#6967A3"/>
<line x1="10" y1="7.5" x2="5" y2="7.5" stroke="#6967A3"/>
</svg>
