<svg width="38" height="38" viewBox="0 0 38 38" fill="none" xmlns="http://www.w3.org/2000/svg">
<circle cx="18.5527" cy="19.0529" r="18.5" fill="url(#paint0_linear)"/>
<g clip-path="url(#clip0)">
<path d="M23.6365 17.9546C24.0633 17.9546 24.4092 17.6087 24.4092 17.1819C24.4092 16.7551 24.0633 16.4092 23.6365 16.4092C23.2097 16.4092 22.8638 16.7551 22.8638 17.1819C22.8638 17.6087 23.2097 17.9546 23.6365 17.9546Z" fill="white"/>
<path d="M14.9647 14.4773C15.0598 14.4773 15.1363 14.4085 15.1363 14.3228V13.8591C15.1363 13.7741 15.0598 13.7046 14.9647 13.7046H13.7623C13.6673 13.7046 13.5908 13.7734 13.5908 13.8591V14.3228C13.5908 14.4078 13.6673 14.4773 13.7623 14.4773H14.9647Z" fill="white"/>
<path d="M19.3865 23.3636C21.3067 23.3636 22.8637 21.8066 22.8637 19.8864C22.8637 17.9661 21.3067 16.4091 19.3865 16.4091C17.4662 16.4091 15.9092 17.9661 15.9092 19.8864C15.9092 21.8066 17.4662 23.3636 19.3865 23.3636ZM19.3865 17.1818C20.8801 17.1818 22.091 18.3927 22.091 19.8864C22.091 21.38 20.8801 22.5909 19.3865 22.5909C17.8928 22.5909 16.6819 21.38 16.6819 19.8864C16.6819 18.3927 17.8928 17.1818 19.3865 17.1818Z" fill="white"/>
<path d="M10.5 16.4091V24.1364C10.5 25.6819 12.0454 25.6819 12.0454 25.6819H25.9545C25.9545 25.6819 27.5 25.6819 27.5 24.1364V16.4091C27.5 14.8637 25.9545 14.8637 25.9545 14.8637H23.0182L22.1975 13.4967C22.1388 13.3978 21.9966 13.3182 21.8854 13.3182H16.8874C16.7738 13.3182 16.6324 13.4009 16.5752 13.4967L15.7545 14.8637H12.0454C12.0454 14.8637 10.5 14.8637 10.5 16.4091ZM16.2754 15.6364L17.1362 14.0909H21.5624L22.5414 15.6364H25.946C25.946 15.6364 26.7273 15.6364 26.7273 16.423V24.1217C26.7273 24.9092 25.946 24.9092 25.946 24.9092H12.0539C12.0539 24.9092 11.2727 24.9092 11.2727 24.1217V16.423C11.2727 15.6364 12.0539 15.6364 12.0539 15.6364H16.2754Z" fill="white"/>
</g>
<defs>
<linearGradient id="paint0_linear" x1="35.3213" y1="7.25001" x2="2.5134" y2="8.83861" gradientUnits="userSpaceOnUse">
<stop stop-color="#FC6076"/>
<stop offset="1" stop-color="#FF9944"/>
</linearGradient>
<clipPath id="clip0">
<rect width="17" height="17" fill="white" transform="translate(10.5 11)"/>
</clipPath>
</defs>
</svg>
