<svg width="99" height="78" viewBox="0 0 99 78" fill="none" xmlns="http://www.w3.org/2000/svg">
<g opacity="0.6">
<path d="M0 9.00006C0 0 6.68629 0 10 0H29C36 0 36 3.68633 36 7.00004V13C36 16.3137 33.3137 19 30 19H6C2.68629 19 0 16.3137 0 13V9.00006Z" fill="url(#paint0_linear)"/>
<path d="M0 13C0 7.47715 4.47715 4.00005 10 4.00005H89C94.5229 4.00005 99 8.4772 99 14V63.0001C99 68.5229 94.5229 73.0001 89 73.0001H10C4.47715 73.0001 0 68.5229 0 63.0001L0 13Z" fill="url(#paint1_linear)"/>
</g>
<rect y="9.00009" width="99" height="69" rx="10" fill="url(#paint2_linear)"/>
<defs>
<linearGradient id="paint0_linear" x1="94.3673" y1="13.2133" x2="6.75593" y2="18.9665" gradientUnits="userSpaceOnUse">
<stop stop-color="#FC6076"/>
<stop offset="1" stop-color="#FF9944"/>
</linearGradient>
<linearGradient id="paint1_linear" x1="94.3673" y1="13.2133" x2="6.75593" y2="18.9665" gradientUnits="userSpaceOnUse">
<stop stop-color="#FC6076"/>
<stop offset="1" stop-color="#FF9944"/>
</linearGradient>
<linearGradient id="paint2_linear" x1="94.3673" y1="21.4894" x2="6.80079" y2="27.573" gradientUnits="userSpaceOnUse">
<stop stop-color="#FC6076"/>
<stop offset="1" stop-color="#FF9944"/>
</linearGradient>
</defs>
</svg>
