<svg width="99" height="70" viewBox="0 0 99 70" fill="none" xmlns="http://www.w3.org/2000/svg">
<g filter="url(#filter0_d)">
<path d="M36.5814 33.2064C36.5814 40.2195 30.8548 45.9048 23.7907 45.9048C16.7266 45.9048 11 40.2195 11 33.2064C11 26.1932 16.7266 20.5079 23.7907 20.5079C30.8548 20.5079 36.5814 26.1932 36.5814 33.2064Z" fill="url(#paint0_linear)"/>
<path d="M11 32.4444H69.0698V52H28.907C19.0172 52 11 44.0406 11 34.2222V32.4444Z" fill="url(#paint1_linear)"/>
<path d="M88 33.0794C88 43.5289 79.4674 52 68.9419 52C58.4163 52 49.8837 43.5289 49.8837 33.0794C49.8837 22.6298 58.4163 14.1587 68.9419 14.1587C79.4674 14.1587 88 22.6298 88 33.0794Z" fill="url(#paint2_linear)"/>
<path d="M69.0698 26.4762C69.0698 38.8895 58.9337 48.9524 46.4302 48.9524C33.9268 48.9524 23.7907 38.8895 23.7907 26.4762C23.7907 14.0629 33.9268 4 46.4302 4C58.9337 4 69.0698 14.0629 69.0698 26.4762Z" fill="url(#paint3_linear)"/>
</g>
<path d="M29.38 39.18C27.508 39.18 25.966 38.574 24.754 37.362C23.554 36.15 22.954 34.602 22.954 32.718C22.954 31.47 23.224 30.354 23.764 29.37C24.316 28.374 25.084 27.6 26.068 27.048C27.052 26.496 28.156 26.22 29.38 26.22C30.784 26.22 32.008 26.592 33.052 27.336C34.108 28.068 34.84 29.07 35.248 30.342H34.312C33.916 29.322 33.286 28.53 32.422 27.966C31.558 27.39 30.544 27.102 29.38 27.102C28.324 27.102 27.376 27.342 26.536 27.822C25.708 28.29 25.054 28.956 24.574 29.82C24.106 30.672 23.872 31.638 23.872 32.718C23.872 33.786 24.106 34.746 24.574 35.598C25.042 36.45 25.696 37.116 26.536 37.596C27.376 38.064 28.324 38.298 29.38 38.298C30.58 38.298 31.618 37.998 32.494 37.398C33.382 36.786 34.018 35.934 34.402 34.842H35.32C35.056 35.73 34.642 36.504 34.078 37.164C33.514 37.812 32.83 38.31 32.026 38.658C31.222 39.006 30.34 39.18 29.38 39.18ZM37.7018 39V25.842H38.5838V39H37.7018ZM46.2393 39.198C44.7873 39.198 43.5753 38.718 42.6033 37.758C41.6313 36.798 41.1453 35.592 41.1453 34.14C41.1453 32.688 41.6253 31.482 42.5853 30.522C43.5573 29.562 44.7693 29.082 46.2213 29.082C47.6853 29.082 48.8973 29.562 49.8573 30.522C50.8293 31.482 51.3153 32.688 51.3153 34.14C51.3153 35.592 50.8293 36.798 49.8573 37.758C48.8973 38.718 47.6913 39.198 46.2393 39.198ZM46.2393 38.334C47.0313 38.334 47.7453 38.154 48.3813 37.794C49.0173 37.434 49.5153 36.936 49.8753 36.3C50.2353 35.652 50.4153 34.932 50.4153 34.14C50.4153 32.928 50.0193 31.926 49.2273 31.134C48.4353 30.342 47.4393 29.946 46.2393 29.946C45.4353 29.946 44.7153 30.126 44.0793 30.486C43.4433 30.846 42.9453 31.35 42.5853 31.998C42.2253 32.634 42.0453 33.348 42.0453 34.14C42.0453 35.34 42.4413 36.342 43.2333 37.146C44.0253 37.938 45.0273 38.334 46.2393 38.334ZM57.8516 39.198C56.5916 39.198 55.5836 38.814 54.8276 38.046C54.0716 37.266 53.6936 36.222 53.6936 34.914V29.28H54.5756V34.788C54.5756 35.88 54.8696 36.744 55.4576 37.38C56.0456 38.016 56.8436 38.334 57.8516 38.334C58.8716 38.334 59.6756 38.016 60.2636 37.38C60.8516 36.744 61.1456 35.88 61.1456 34.788V29.28H62.0276V34.914C62.0276 36.222 61.6496 37.266 60.8936 38.046C60.1376 38.814 59.1236 39.198 57.8516 39.198ZM73.5091 25.842H74.3911V39H73.6891L73.5631 36.966C73.1191 37.662 72.5311 38.208 71.7991 38.604C71.0791 39 70.2691 39.198 69.3691 39.198C67.9411 39.198 66.7531 38.718 65.8051 37.758C64.8691 36.786 64.4011 35.58 64.4011 34.14C64.4011 32.688 64.8691 31.482 65.8051 30.522C66.7531 29.562 67.9411 29.082 69.3691 29.082C70.2571 29.082 71.0551 29.274 71.7631 29.658C72.4831 30.042 73.0651 30.57 73.5091 31.242V25.842ZM69.4231 38.334C70.6231 38.334 71.6131 37.938 72.3931 37.146C73.1731 36.342 73.5631 35.34 73.5631 34.14C73.5631 32.928 73.1731 31.926 72.3931 31.134C71.6131 30.342 70.6231 29.946 69.4231 29.946C68.6551 29.946 67.9531 30.126 67.3171 30.486C66.6811 30.846 66.1831 31.35 65.8231 31.998C65.4751 32.634 65.3011 33.348 65.3011 34.14C65.3011 35.34 65.6911 36.342 66.4711 37.146C67.2631 37.938 68.2471 38.334 69.4231 38.334Z" fill="white"/>
<defs>
<filter id="filter0_d" x="0" y="0" width="99" height="70" filterUnits="userSpaceOnUse" color-interpolation-filters="sRGB">
<feFlood flood-opacity="0" result="BackgroundImageFix"/>
<feColorMatrix in="SourceAlpha" type="matrix" values="0 0 0 0 0 0 0 0 0 0 0 0 0 0 0 0 0 0 127 0" result="hardAlpha"/>
<feOffset dy="7"/>
<feGaussianBlur stdDeviation="5.5"/>
<feColorMatrix type="matrix" values="0 0 0 0 0.458824 0 0 0 0 0.866667 0 0 0 0 0.643137 0 0 0 0.4 0"/>
<feBlend mode="normal" in2="BackgroundImageFix" result="effect1_dropShadow"/>
<feBlend mode="normal" in="SourceGraphic" in2="effect1_dropShadow" result="shape"/>
</filter>
<linearGradient id="paint0_linear" x1="11" y1="4" x2="92.9156" y2="41.1657" gradientUnits="userSpaceOnUse">
<stop stop-color="#93FFC9"/>
<stop offset="1" stop-color="#75DDA4"/>
</linearGradient>
<linearGradient id="paint1_linear" x1="11" y1="4" x2="92.9156" y2="41.1657" gradientUnits="userSpaceOnUse">
<stop stop-color="#93FFC9"/>
<stop offset="1" stop-color="#75DDA4"/>
</linearGradient>
<linearGradient id="paint2_linear" x1="11" y1="4" x2="92.9156" y2="41.1657" gradientUnits="userSpaceOnUse">
<stop stop-color="#93FFC9"/>
<stop offset="1" stop-color="#75DDA4"/>
</linearGradient>
<linearGradient id="paint3_linear" x1="11" y1="4" x2="92.9156" y2="41.1657" gradientUnits="userSpaceOnUse">
<stop stop-color="#93FFC9"/>
<stop offset="1" stop-color="#75DDA4"/>
</linearGradient>
</defs>
</svg>
