<svg width="27" height="27" viewBox="0 0 27 27" fill="none" xmlns="http://www.w3.org/2000/svg">
<circle cx="13.5" cy="13.5" r="13.5" fill="url(#paint0_linear)"/>
<path d="M13.4137 13.4757C15.1084 13.4757 16.4821 12.1019 16.4821 10.4072C16.4821 8.71264 15.1084 7.33878 13.4137 7.33878C11.7191 7.33878 10.3452 8.71264 10.3452 10.4072C10.3465 12.1013 11.7196 13.4744 13.4137 13.4757ZM13.4137 7.85884C14.8211 7.85884 15.962 8.99974 15.962 10.4072C15.962 11.8147 14.8211 12.9556 13.4137 12.9556C12.0063 12.9556 10.8653 11.8147 10.8653 10.4072C10.8676 9.0008 12.0072 7.86112 13.4137 7.85884Z" fill="white"/>
<path d="M13.4139 14.2428C12.08 14.2428 10.8395 14.7603 9.91905 15.7017C8.98547 16.656 8.47314 17.9587 8.47314 19.3734C8.47355 19.5169 8.58979 19.633 8.73322 19.6334H18.0946C18.2381 19.633 18.3542 19.5169 18.3546 19.3734C18.3546 17.9614 17.8423 16.656 16.9088 15.7043C15.9883 14.7629 14.7479 14.2428 13.4139 14.2428ZM8.9985 19.1134C9.05572 17.938 9.51075 16.8641 10.2883 16.0683C11.11 15.2283 12.2204 14.7656 13.4113 14.7656C14.6023 14.7656 15.7127 15.2283 16.5343 16.0683C17.3145 16.8641 17.767 17.938 17.8242 19.1134H8.9985Z" fill="white"/>
<defs>
<linearGradient id="paint0_linear" x1="25.7365" y1="4.88711" x2="1.79562" y2="6.04636" gradientUnits="userSpaceOnUse">
<stop stop-color="#FC6076"/>
<stop offset="1" stop-color="#FF9944"/>
</linearGradient>
</defs>
</svg>
